<?xml version="1.0" encoding="UTF-8"?>
<!DOCTYPE svg PUBLIC "-//W3C//DTD SVG 1.0//EN" "http://www.w3.org/TR/2001/REC-SVG-20010904/DTD/svg10.dtd">
<!-- Creator: CorelDRAW 2021 (64-Bit) -->
<svg xmlns="http://www.w3.org/2000/svg" xml:space="preserve" width="55.1399mm" height="53.7313mm" version="1.0" style="shape-rendering:geometricPrecision; text-rendering:geometricPrecision; image-rendering:optimizeQuality; fill-rule:evenodd; clip-rule:evenodd"
viewBox="0 0 10616.84 10345.62"
 xmlns:xlink="http://www.w3.org/1999/xlink"
 xmlns:xodm="http://www.corel.com/coreldraw/odm/2003">
 <defs>
  <style type="text/css">
   <![CDATA[
    .fil0 {fill:#E5097F}
   ]]>
  </style>
 </defs>
 <g id="Layer_x0020_1">
  <metadata id="CorelCorpID_0Corel-Layer"/>
  <path class="fil0" d="M-0 3277.44c16.48,937.38 329.1,2239.51 1084.44,2784.11 633.97,457.14 2173.07,885.41 3124.43,707.66 165.97,-330.21 131.74,-142.42 48.54,-488.21 -76.59,-318.78 -17.33,-382.68 3.58,-661.62l-1800.15 -1123.43c438.75,175.45 916.01,351.76 1378.54,533.1 1284.36,503.71 409.96,0.21 1406.57,-74.01 -121.78,-263.92 -277.11,-379.95 -446.87,-588.3 -173.29,-212.65 -273.6,-348.25 -475.72,-533.52 -294.65,-270.24 -740.25,-629.08 -1170.94,-852.03 -1041.57,-539.26 -2204.99,-199.17 -3152.42,296.27z"/>
  <path class="fil0" d="M5372.86 4999.92c291.36,173.77 408.79,43.01 676.43,367.95l1971.53 -742.08c-501.88,426.39 -1101.91,677.97 -1664.54,1086.89 1.68,247.65 53.95,316.97 3.16,587.95 -64.33,343.27 -146.06,180.86 19.43,534.92 753.94,293.59 2561.6,-291.41 3112.51,-666.45 770.16,-524.34 1013.99,-1640.61 1125.48,-2811.75 -1532.65,-607.32 -2784.34,-1081.34 -4306.16,580.44 -167.4,182.82 -359.75,303.99 -509.88,500l-427.95 562.13z"/>
  <path class="fil0" d="M3134.05 2742.86c325.71,273.95 766.29,454.46 1062.61,741.66 340.59,330.08 573.99,615.18 923.5,922.96l209.2 -1994.41 202.83 1866.23c51.49,157.35 9.11,59.77 63.91,132.72 272.62,-470.15 1250.34,-1318.25 1945,-1611.63 -85.3,-2285.19 -1621.66,-2135.62 -2188.16,-2800.39 -424.42,411.39 -1046.4,517.17 -1502.96,942.1 -407.94,379.66 -676.85,1020.31 -715.92,1800.77z"/>
  <path class="fil0" d="M5293.51 10345.62c733.61,-427.79 1345.34,-926.1 1295.47,-1839.43 -49.46,-905.96 -305.18,-1925.65 -998.51,-2206.82 -232.34,386.26 -127.46,1137.55 -272.33,1605.81l-194.18 -1624.13c-731.84,187.81 -995.34,1229.93 -1085.43,2102.08 -124.79,1207.56 673.69,1466.49 1254.98,1962.48z"/>
  <path class="fil0" d="M1058.2 8801.27c303.91,260.13 810.76,420.42 1266.34,479.99 691.58,90.34 959.91,-64.69 1504.65,-239.02 2.68,-795.53 18.25,-992.39 164.37,-1740.09l-1364.48 687.73c141.64,-187.38 884.7,-805.8 1081.61,-895.44l-145.27 -70.86c-15.23,-4.56 -32.85,-10.24 -49.81,-14.38l-784.12 -105.44c-304.05,-63.56 -607.67,-181.7 -883.87,-230.46 -194.39,302.64 -358.05,444.7 -529.23,887.01 -139.61,360.94 -270.93,812.17 -260.2,1240.96z"/>
  <path class="fil0" d="M6902.42 7097.64c95.62,189.64 894.67,758.08 1112.13,987.13l-1394.92 -700.34c105.44,679.02 220.91,978.08 137.42,1739.54 1234.86,326.84 1281.86,497.38 2797.31,-216.5 -28.77,-969.88 -359.75,-1564.23 -815.83,-2131.82 -645.89,94.5 -1044.78,318.14 -1836.12,321.99z"/>
  <path class="fil0" d="M4484.65 6330.45l215.49 -76.05c142.48,-91.13 103.7,-94 270.74,-148.72 767.9,-251.71 1069.77,345.31 1161.94,247.23 133.59,-142.19 33.83,-509.61 -48.33,-657.13 -449.69,-807.74 -1813.34,-473.75 -1599.85,634.68z"/>
 </g>
</svg>
